<svg xmlns="http://www.w3.org/2000/svg" xmlns:xlink="http://www.w3.org/1999/xlink" xmlns:serif="http://www.serif.com/" width="100%" height="100%" viewBox="0 0 6000 2401" version="1.1" xml:space="preserve" style="fill-rule:evenodd;clip-rule:evenodd;stroke-linejoin:round;stroke-miterlimit:1.41421;"><path d="M6000,0l-6000,0l0,1980.33c2001.35,560.487 4001.35,559.735 6000,0l0,-1980.33Z" style="fill:#444;"/><clipPath id="_clip1"><path d="M6000,0l-6000,0l0,1980.33c2001.35,560.487 4001.35,559.735 6000,0l0,-1980.33Z"/></clipPath><g clip-path="url(#_clip1)"><rect x="0" y="-3.642" width="6000" height="3375" style="fill:url(#_Radial2);"/><g opacity="0.5"><path d="M-210.726,1470.54c-106.015,-214.844 -165.593,-456.634 -165.593,-712.229c0,-890.245 722.766,-1613.01 1613.01,-1613.01c890.244,0 1613.01,722.766 1613.01,1613.01c0,890.244 -722.766,1613.01 -1613.01,1613.01c-132.554,0 -261.395,-16.024 -384.691,-46.24c144.429,-126.908 235.644,-312.953 235.644,-520.136c0,-4.234 -0.038,-8.46 -0.114,-12.677c48.72,6.978 98.522,10.589 149.161,10.589c576.501,0 1044.55,-468.045 1044.55,-1044.55c0,-576.502 -468.046,-1044.55 -1044.55,-1044.55c-576.502,0 -1044.55,468.045 -1044.55,1044.55c0,129.454 23.6,253.44 66.73,367.885c-202.227,40.52 -372.736,169.276 -469.601,344.344Zm591.517,-113.636c113.237,161.536 271.019,289.608 455.447,366.318c4.891,26.501 7.447,53.816 7.447,81.723c0,189.639 -118.011,351.932 -284.54,417.383c-239.884,-111.312 -447.898,-279.867 -606.457,-488.079c33.198,-209.188 211.316,-370.386 428.103,-377.345Z" style="fill:url(#_Linear3);"/><path d="M2560.31,365.333c-66.261,-134.281 -103.498,-285.403 -103.498,-445.155c0,-556.416 451.74,-1008.16 1008.16,-1008.16c556.416,0 1008.16,451.74 1008.16,1008.16c0,556.417 -451.74,1008.16 -1008.16,1008.16c-82.849,0 -163.376,-10.015 -240.438,-28.901c90.271,-79.319 147.281,-195.6 147.281,-325.093c0,-2.646 -0.023,-5.288 -0.071,-7.923c30.451,4.361 61.578,6.619 93.228,6.619c360.322,0 652.858,-292.536 652.858,-652.859c0,-360.322 -292.536,-652.858 -652.858,-652.858c-360.323,0 -652.859,292.536 -652.859,652.858c0,80.912 14.751,158.405 41.708,229.935c-126.395,25.325 -232.966,105.8 -293.508,215.22Zm369.707,-71.024c70.775,100.962 169.392,181.009 284.662,228.954c3.057,16.564 4.654,33.636 4.654,51.078c0,118.527 -73.759,219.963 -177.842,260.871c-149.931,-69.572 -279.943,-174.921 -379.045,-305.057c20.749,-130.745 132.076,-231.497 267.571,-235.846Z" style="fill:url(#_Linear4);"/><path d="M5096.35,1773.2c-13.047,199.806 -70.965,399.711 -177.776,584.712c-372.021,644.36 -1197.19,865.465 -1841.56,493.443c-644.361,-372.022 -865.465,-1197.19 -493.444,-1841.56c372.022,-644.36 1197.2,-865.465 1841.56,-493.443c95.943,55.393 182.502,120.832 259.117,194.226c-157.571,31.5 -301.339,128.043 -387.918,278.002c-1.77,3.065 -3.508,6.14 -5.215,9.224c-32.347,-25.411 -66.885,-48.836 -103.537,-69.997c-417.273,-240.913 -951.636,-97.731 -1192.55,319.542c-240.912,417.272 -97.73,951.635 319.542,1192.55c417.273,240.912 951.635,97.73 1192.55,-319.543c54.097,-93.699 88.827,-193.302 105.435,-294.161c163.305,55.179 340.525,33.239 483.795,-52.997Zm-475.628,-164.938c-14.458,-164.24 -75.141,-322.874 -176.574,-455.467c7.534,-21.225 17.099,-42.064 28.761,-62.263c79.248,-137.261 232.485,-205.413 380.37,-183.197c127.112,180.813 207.236,389.739 234.992,606.703c-111.445,137.538 -307.73,179.78 -467.549,94.224Z" style="fill:url(#_Linear5);"/><path d="M5015.63,1197.87c-13.047,199.807 -70.965,399.712 -177.775,584.712c-372.022,644.361 -1197.2,865.465 -1841.56,493.443c-644.361,-372.021 -865.465,-1197.19 -493.444,-1841.56c372.022,-644.361 1197.2,-865.465 1841.56,-493.444c95.943,55.393 182.502,120.832 259.117,194.226c-157.571,31.501 -301.339,128.043 -387.918,278.002c-1.77,3.065 -3.508,6.14 -5.215,9.224c-32.347,-25.411 -66.885,-48.836 -103.537,-69.997c-417.273,-240.913 -951.636,-97.73 -1192.55,319.542c-240.912,417.273 -97.73,951.635 319.542,1192.55c417.273,240.912 951.636,97.73 1192.55,-319.542c54.097,-93.7 88.827,-193.303 105.435,-294.162c163.306,55.179 340.525,33.239 483.795,-52.997Zm-475.628,-164.938c-14.457,-164.24 -75.141,-322.874 -176.574,-455.466c7.534,-21.226 17.099,-42.065 28.761,-62.264c79.248,-137.261 232.485,-205.413 380.37,-183.197c127.112,180.813 207.237,389.739 234.993,606.703c-111.446,137.538 -307.731,179.78 -467.55,94.224Z" style="fill:url(#_Linear6);"/><path d="M37.684,1470.54c-106.014,-214.844 -165.592,-456.634 -165.592,-712.229c0,-890.245 722.765,-1613.01 1613.01,-1613.01c890.244,0 1613.01,722.766 1613.01,1613.01c0,890.244 -722.766,1613.01 -1613.01,1613.01c-132.554,0 -261.395,-16.024 -384.69,-46.24c144.429,-126.908 235.644,-312.953 235.644,-520.136c0,-4.234 -0.039,-8.46 -0.115,-12.677c48.72,6.978 98.522,10.589 149.161,10.589c576.501,0 1044.55,-468.045 1044.55,-1044.55c0,-576.502 -468.046,-1044.55 -1044.55,-1044.55c-576.501,0 -1044.55,468.045 -1044.55,1044.55c0,129.454 23.6,253.44 66.73,367.885c-202.227,40.52 -372.736,169.276 -469.601,344.344Zm591.517,-113.636c113.237,161.536 271.02,289.608 455.448,366.318c4.89,26.501 7.446,53.816 7.446,81.723c0,189.639 -118.011,351.932 -284.54,417.383c-239.884,-111.312 -447.898,-279.867 -606.457,-488.079c33.198,-209.188 211.316,-370.386 428.103,-377.345Z" style="fill:url(#_Linear7);"/><path d="M2715.57,365.333c-66.261,-134.281 -103.498,-285.403 -103.498,-445.155c0,-556.416 451.74,-1008.16 1008.16,-1008.16c556.416,0 1008.16,451.74 1008.16,1008.16c0,556.417 -451.74,1008.16 -1008.16,1008.16c-82.849,0 -163.376,-10.015 -240.438,-28.901c90.271,-79.319 147.282,-195.6 147.282,-325.093c0,-2.646 -0.024,-5.288 -0.072,-7.923c30.451,4.361 61.578,6.619 93.228,6.619c360.322,0 652.858,-292.536 652.858,-652.859c0,-360.322 -292.536,-652.858 -652.858,-652.858c-360.322,0 -652.858,292.536 -652.858,652.858c0,80.912 14.75,158.405 41.707,229.935c-126.395,25.325 -232.966,105.8 -293.508,215.22Zm369.708,-71.024c70.774,100.962 169.391,181.009 284.661,228.954c3.057,16.564 4.654,33.636 4.654,51.078c0,118.527 -73.758,219.963 -177.842,260.871c-149.931,-69.572 -279.943,-174.921 -379.045,-305.057c20.75,-130.745 132.076,-231.497 267.572,-235.846Z" style="fill:url(#_Linear8);"/><path d="M767.274,1074.68c-40.138,-81.342 -62.695,-172.886 -62.695,-269.657c0,-337.054 273.646,-610.7 610.7,-610.7c337.055,0 610.7,273.646 610.7,610.7c0,337.055 -273.645,610.7 -610.7,610.7c-50.186,0 -98.966,-6.066 -145.647,-17.506c54.682,-48.049 89.217,-118.487 89.217,-196.928c0,-1.604 -0.014,-3.204 -0.043,-4.8c18.446,2.642 37.301,4.009 56.473,4.009c218.269,0 395.475,-177.206 395.475,-395.475c0,-218.268 -177.206,-395.475 -395.475,-395.475c-218.268,0 -395.475,177.207 -395.475,395.475c0,49.013 8.936,95.955 25.265,139.285c-76.565,15.341 -141.121,64.09 -177.795,130.372Zm223.954,-43.024c42.872,61.159 102.61,109.648 172.436,138.691c1.852,10.034 2.819,20.376 2.819,30.942c0,71.798 -44.68,133.244 -107.729,158.025c-90.822,-42.144 -169.578,-105.961 -229.61,-184.792c12.569,-79.2 80.006,-140.231 162.084,-142.866Z" style="fill:url(#_Linear9);"/><path d="M3708.2,1272.45c87.849,5.736 175.74,31.201 257.079,78.162c283.305,163.566 380.518,526.369 216.952,809.673c-163.566,283.305 -526.369,380.518 -809.674,216.952c-283.305,-163.566 -380.517,-526.369 -216.951,-809.674c24.354,-42.183 53.126,-80.24 85.394,-113.925c13.85,69.279 56.297,132.489 122.229,170.555c1.348,0.778 2.7,1.542 4.056,2.293c-11.172,14.222 -21.472,29.407 -30.776,45.522c-105.921,183.461 -42.969,418.404 140.493,524.325c183.461,105.922 418.404,42.969 524.325,-140.492c105.922,-183.462 42.969,-418.404 -140.492,-524.326c-41.197,-23.784 -84.99,-39.054 -129.334,-46.356c24.261,-71.8 14.614,-149.718 -23.301,-212.709Zm-72.518,209.118c-72.211,6.357 -141.957,33.037 -200.254,77.634c-9.332,-3.312 -18.494,-7.518 -27.375,-12.645c-60.35,-34.843 -90.314,-102.216 -80.546,-167.237c79.497,-55.887 171.356,-91.115 266.748,-103.318c60.471,48.999 79.043,135.299 41.427,205.566Z" style="fill:url(#_Linear10);"/><path d="M4381.57,709.795c-66.261,-134.281 -103.498,-285.403 -103.498,-445.155c0,-556.416 451.74,-1008.16 1008.16,-1008.16c556.417,0 1008.16,451.74 1008.16,1008.16c0,556.417 -451.74,1008.16 -1008.16,1008.16c-82.848,0 -163.375,-10.015 -240.437,-28.901c90.271,-79.319 147.281,-195.6 147.281,-325.093c0,-2.646 -0.023,-5.288 -0.071,-7.923c30.451,4.361 61.578,6.619 93.227,6.619c360.323,0 652.859,-292.536 652.859,-652.859c0,-360.322 -292.536,-652.858 -652.859,-652.858c-360.322,0 -652.858,292.536 -652.858,652.858c0,80.912 14.751,158.405 41.708,229.935c-126.395,25.325 -232.966,105.8 -293.508,215.22Zm369.707,-71.024c70.775,100.962 169.392,181.009 284.662,228.954c3.057,16.564 4.654,33.636 4.654,51.078c0,118.527 -73.759,219.963 -177.842,260.871c-149.931,-69.572 -279.943,-174.921 -379.045,-305.057c20.749,-130.745 132.076,-231.497 267.571,-235.846Z" style="fill:url(#_Linear11);"/><path d="M6634.06,1036.48c-13.047,199.806 -70.965,399.711 -177.775,584.712c-372.022,644.36 -1197.2,865.465 -1841.56,493.443c-644.361,-372.022 -865.465,-1197.19 -493.444,-1841.56c372.022,-644.36 1197.2,-865.465 1841.56,-493.443c95.943,55.392 182.502,120.831 259.117,194.225c-157.571,31.501 -301.339,128.044 -387.918,278.003c-1.77,3.065 -3.508,6.139 -5.215,9.224c-32.347,-25.411 -66.885,-48.836 -103.537,-69.998c-417.273,-240.912 -951.635,-97.73 -1192.55,319.543c-240.912,417.272 -97.73,951.635 319.542,1192.55c417.273,240.913 951.636,97.731 1192.55,-319.542c54.097,-93.699 88.827,-193.303 105.435,-294.162c163.306,55.18 340.525,33.239 483.795,-52.996Zm-475.628,-164.938c-14.457,-164.24 -75.141,-322.874 -176.574,-455.467c7.534,-21.226 17.099,-42.064 28.761,-62.263c79.248,-137.261 232.485,-205.413 380.37,-183.197c127.112,180.812 207.237,389.739 234.993,606.703c-111.446,137.538 -307.731,179.78 -467.55,94.224Z" style="fill:url(#_Linear12);"/></g></g><defs><radialGradient id="_Radial2" cx="0" cy="0" r="1" gradientUnits="userSpaceOnUse" gradientTransform="matrix(3934.62,0,0,3934.62,2182.97,-3.64235)"><stop offset="0" style="stop-color:#00155b;stop-opacity:1"/><stop offset="1" style="stop-color:#093c9d;stop-opacity:1"/></radialGradient><linearGradient id="_Linear3" x1="0" y1="0" x2="1" y2="0" gradientUnits="userSpaceOnUse" gradientTransform="matrix(-1020.14,-884.34,884.34,-1020.14,1236.69,1099.46)"><stop offset="0" style="stop-color:#1771bb;stop-opacity:0.0642857"/><stop offset="1" style="stop-color:#1771bb;stop-opacity:0"/></linearGradient><linearGradient id="_Linear4" x1="0" y1="0" x2="1" y2="0" gradientUnits="userSpaceOnUse" gradientTransform="matrix(-637.602,-552.726,552.726,-637.602,3464.97,133.402)"><stop offset="0" style="stop-color:#1771bb;stop-opacity:0.0642857"/><stop offset="1" style="stop-color:#1771bb;stop-opacity:0"/></linearGradient><linearGradient id="_Linear5" x1="0" y1="0" x2="1" y2="0" gradientUnits="userSpaceOnUse" gradientTransform="matrix(-1532.44,-2588.7,2588.7,-1532.44,5347.75,3031.99)"><stop offset="0" style="stop-color:#1771bb;stop-opacity:0.0642857"/><stop offset="1" style="stop-color:#1771bb;stop-opacity:0"/></linearGradient><linearGradient id="_Linear6" x1="0" y1="0" x2="1" y2="0" gradientUnits="userSpaceOnUse" gradientTransform="matrix(-1532.44,-2588.7,2588.7,-1532.44,5267.02,2456.66)"><stop offset="0" style="stop-color:#1771bb;stop-opacity:0.0642857"/><stop offset="1" style="stop-color:#1771bb;stop-opacity:0"/></linearGradient><linearGradient id="_Linear7" x1="0" y1="0" x2="1" y2="0" gradientUnits="userSpaceOnUse" gradientTransform="matrix(-1357.98,748.543,-748.543,-1357.98,3154.42,168.747)"><stop offset="0" style="stop-color:#1771bb;stop-opacity:0.25"/><stop offset="1" style="stop-color:#1771bb;stop-opacity:0"/></linearGradient><linearGradient id="_Linear8" x1="0" y1="0" x2="1" y2="0" gradientUnits="userSpaceOnUse" gradientTransform="matrix(-848.756,467.851,-467.851,-848.756,4663.58,-448.306)"><stop offset="0" style="stop-color:#1771bb;stop-opacity:0.25"/><stop offset="1" style="stop-color:#1771bb;stop-opacity:0"/></linearGradient><linearGradient id="_Linear9" x1="0" y1="0" x2="1" y2="0" gradientUnits="userSpaceOnUse" gradientTransform="matrix(-514.142,283.405,-283.405,-514.142,1947.3,581.815)"><stop offset="0" style="stop-color:#1771bb;stop-opacity:0.25"/><stop offset="1" style="stop-color:#1771bb;stop-opacity:0"/></linearGradient><linearGradient id="_Linear10" x1="0" y1="0" x2="1" y2="0" gradientUnits="userSpaceOnUse" gradientTransform="matrix(11.2925,-569.683,569.683,11.2925,3549.83,2503.48)"><stop offset="0" style="stop-color:#1771bb;stop-opacity:0.25"/><stop offset="1" style="stop-color:#1771bb;stop-opacity:0"/></linearGradient><linearGradient id="_Linear11" x1="0" y1="0" x2="1" y2="0" gradientUnits="userSpaceOnUse" gradientTransform="matrix(-848.756,467.851,-467.851,-848.756,6329.58,-103.844)"><stop offset="0" style="stop-color:#1771bb;stop-opacity:0.25"/><stop offset="1" style="stop-color:#1771bb;stop-opacity:0"/></linearGradient><linearGradient id="_Linear12" x1="0" y1="0" x2="1" y2="0" gradientUnits="userSpaceOnUse" gradientTransform="matrix(-168.302,-443.35,443.35,-168.302,5284.79,1050.94)"><stop offset="0" style="stop-color:#1771bb;stop-opacity:0.15"/><stop offset="1" style="stop-color:#1771bb;stop-opacity:0"/></linearGradient></defs></svg>